<svg width="256" height="85" viewBox="0 0 256 85" fill="none" xmlns="http://www.w3.org/2000/svg">
<path d="M51.3 56.1L48.5 61H45.8L44.9 62.4H47.7L41.6 72.8C40.3 75 41.2 77 43.7 77C45.5 77 47.4 75.7 49.3 73.9C49.3 77.7 54.6 78.4 57.9 74.4H58.6C60.4 74.4 63.2 73.3 64.8 71.5C64.6 71.1 64.1 70.6 63.7 70.5L63.5 70.7C62.1 72.2 60.5 72.9 58.9 72.9L61.7 68.1C63.5 65 61.8 62 59 62C56.7 62 54.9 62.9 53.1 65.9L51.6 68.5L50.4 70.6L50.2 70.8C48 73.3 45.9 75.3 44.6 75.3C43.9 75.3 43.6 74.8 44.3 73.7L50.8 62.5H53.3L54 61H51.5L54.3 56.1H51.3ZM58.8 63.9C59.8 64 60.2 65.2 59.2 66.9L57 70.6H56.9C55.9 70.6 55.1 71.4 55.1 72.4C55.1 72.8 55.2 73.1 55.4 73.4V73.5C54 75.9 50.5 75.5 52.3 72.4L54.6 68.5L56.1 66.1C57 64.5 58.1 63.9 58.8 63.9ZM80.8 56.1L78 61H75.3L74.4 62.4H77.2L71 72.8C69.7 75 70.6 77 73.1 77C74.3 77 75.6 76.4 77 75.4L76.2 76.7H79.2L83.8 68.8C88.4 63 90.5 63.8 89.2 66L85.3 72.7C84 74.9 84.9 76.9 87.4 76.9C89.2 76.9 91.2 75.5 93.1 73.7C93.2 75.6 94.8 76.9 97.2 76.9C100.6 76.9 104 74.3 106.5 71.4C106.3 71 105.8 70.5 105.4 70.4L105.2 70.6C103 73.1 100.2 75.1 98.1 75.1C96.2 75.1 95.1 74 96.5 71.5L96.8 71C98.7 71.8 102.4 71.4 104.7 67.6L105.1 66.9C106.7 64.1 105.2 62.1 102.7 62.1C100.3 62.1 98.3 63.4 97 65.5L94.1 70.5L93.9 70.7C91.7 73.2 89.6 75.2 88.3 75.2C87.6 75.2 87.3 74.7 87.9 73.6L92.3 66.1C93.6 63.8 92.4 62.2 90.7 62.2C89.4 62.2 88 62.9 86.5 64.5L91.3 56.2H88.3L79.9 70.6L79.7 70.8C77.5 73.3 75.4 75.3 74.1 75.3C73.4 75.3 73.1 74.8 73.8 73.7L80.3 62.5H82.8L83.7 61.1H81.2L84 56.2L80.8 56.1ZM102.1 64.3C103.1 64.2 103.6 65.2 102.6 66.9L102.2 67.6C100.8 70 98.8 70 97.7 69.6L99.6 66.2C100.3 65 101.3 64.4 102.1 64.3ZM146.4 58.9C144.7 60.4 144.5 62.1 145.6 63.5L145.9 63.8C144.6 65.7 142.8 68.2 140.8 70.5L140.6 70.7C139.2 72.2 137.6 72.9 136 72.9L138.8 68.1C140.6 65 138.9 62 136.1 62C133.8 62 132 62.9 130.2 65.9L128.7 68.5L127.5 70.6L127.3 70.8C124.8 73.6 122.7 75.5 120.3 76.5L127.1 65.1H125.3C125.3 63.9 124 62.2 122.1 62.2C120.5 62.2 118.2 63.5 116.9 65.6L112.7 72.8C111.4 75 112.3 77 114.8 77C115.6 77 116.7 76.6 117.7 76L116.9 77.4C112.8 78.6 110.3 80.3 110.3 82.5C110.3 85.4 114.7 86 116.9 82.3L119.2 78.4C121.6 77.7 124 76.3 126.4 73.9C126.4 77.7 131.7 78.5 135 74.4H135.7C137.5 74.4 140.3 73.3 141.9 71.5C143.3 69.8 144.5 68.3 146.9 65.1L147.3 65.6C147.7 66.1 147.8 66.7 147.5 67.3L144.3 72.8C143 75 143.9 77 146.4 77C147.9 77 149.6 76 151.2 74.6C151.1 76 152.1 77 153.8 77C154.6 77 155.7 76.6 156.7 76L155.9 77.4C151.8 78.6 149.3 80.3 149.3 82.5C149.3 85.4 153.7 86 155.9 82.3L158.2 78.4C160.7 77.6 163.1 76.2 165.6 73.8C165.7 75.7 167.3 77 169.7 77C172.2 77 174.6 75.6 176.7 73.8C176.6 77.7 182 78.5 185.3 74.4H186C186.9 74.4 188.2 74.1 189.4 73.5C188.6 75.6 189.3 77 191.1 77C192.8 77 194.6 75.5 196.1 74.1C195.8 75.7 196.8 77 198.7 77C201.2 77 204.1 74.4 206.6 71.5C208.3 69.5 209.8 67.5 210.9 66.1C209.7 69.2 210.3 74.8 207.5 74.8C206.5 74.8 206.1 73.7 206.1 73.7L204.2 74.7C204.2 74.7 204.8 77.1 207.5 77.1C207.8 77.1 208.1 77.1 208.3 77H208.4C211.5 76.6 214.5 74.2 216.8 71.6C216.6 71.1 216.1 70.7 215.7 70.6L215.5 70.8C214.4 72 213.2 73.1 211.9 74C212.9 71.2 212.7 66.8 214.5 63L212.2 61.8C211 63.5 208.2 67.4 205.5 70.5L205.3 70.7C203.1 73.2 201 75.2 199.7 75.2C199 75.2 198.7 74.7 199.4 73.6L205.8 62.4H202.8L197.4 71.7C195.1 73.8 193.3 74.9 192.8 74.7C192 74.4 192.8 73.3 193.2 72.6L199.1 62.4H196.1L191.4 70.5L191.2 70.7C189.8 72.2 188.2 72.9 186.6 72.9L189.4 68.1C191.2 65 189.5 62 186.7 62C184.4 62 182.6 62.9 180.8 65.9L179.3 68.5L178.1 70.6L177.9 70.8C175.7 73.3 172.9 75.3 170.8 75.3C168.9 75.3 167.8 74.2 169.2 71.7L169.5 71.2C171.4 72 175.1 71.6 177.4 67.8L177.8 67.1C179.4 64.3 177.9 62.3 175.4 62.3C173 62.3 171 63.6 169.7 65.7L166.8 70.7L166.6 70.9C164.1 73.7 162 75.6 159.6 76.6L166.4 65.2H164.6C164.6 64 163.3 62.3 161.4 62.3C159.8 62.3 157.5 63.6 156.2 65.7L153.3 70.6L153.1 70.8C150.9 73.3 148.8 75.3 147.5 75.3C146.8 75.3 146.5 74.8 147.2 73.7L150.2 68.5C151.2 66.7 150.8 65.6 149.8 64.5L148.1 62.5C147.7 62 147.7 61.4 148.3 60.8L146.4 58.9ZM136.1 63.9C137.1 64 137.6 65.2 136.5 66.9L134.3 70.6H134.2C133.2 70.6 132.4 71.4 132.4 72.4C132.4 72.8 132.5 73.1 132.7 73.4V73.5C131.3 75.9 127.8 75.5 129.6 72.4L131.9 68.5L133.4 66.1C134.3 64.5 135.3 63.9 136.1 63.9ZM186.3 63.9C187.3 64 187.8 65.2 186.7 66.9L184.5 70.6H184.4C183.4 70.6 182.6 71.4 182.6 72.4C182.6 72.8 182.7 73.1 182.9 73.4V73.5C181.5 75.9 178 75.5 179.8 72.4L182.1 68.5L183.6 66.1C184.4 64.5 185.5 63.9 186.3 63.9ZM174.6 64.3C175.6 64.2 176.1 65.2 175.1 66.9L174.7 67.6C173.2 70 171.3 70 170.2 69.6L172.1 66.2C172.8 65 173.8 64.4 174.6 64.3ZM122.2 64.5C123.2 64.5 123.9 65.4 123 66.9L120.7 70.9C118.9 73.8 117 75.2 115.8 75.2C115.1 75.2 114.8 74.7 115.5 73.6L119.7 66.3C120.4 65.1 121.4 64.5 122.2 64.5ZM161.1 64.5C162.1 64.5 162.8 65.4 161.9 66.9L159.6 70.9C157.8 73.8 155.9 75.2 154.7 75.2C154 75.2 153.7 74.7 154.4 73.6L158.6 66.3C159.3 65.1 160.3 64.5 161.1 64.5ZM115.8 79.4L114.4 81.8C113.8 82.9 112.7 82.7 112.7 81.9C112.7 81.2 113.5 80.3 115.8 79.4ZM154.7 79.4L153.3 81.8C152.7 82.9 151.6 82.7 151.6 81.9C151.7 81.2 152.4 80.3 154.7 79.4ZM0 67.8H28.9V69.7H0V67.8ZM227.1 67.8H256V69.7H227.1V67.8Z" fill="#766458"/>
<path d="M221.7 37.4V45.1H200.9V0.400002H221.7V8H208.5V18.8H219V26.5H208.5V37.4H221.7ZM188.9 0.400002H196.5V45.1H188.9V23.1L185.9 34.5H178.5L175.5 23.1V45.1H167.9V0.400002H175.5L182.3 22L188.9 0.400002ZM157 8H151.5V37.3H157V8ZM160 0.400002C162.5 0.400002 164.7 2.5 164.7 5.1V40.4C164.7 43 162.5 45.1 160 45.1H148.6C146 45.1 143.9 42.9 143.9 40.4V5.1C143.9 2.5 146 0.400002 148.6 0.400002H160ZM132 28.6L139.7 26.8V40.4C139.7 43 137.5 45.1 135 45.1H123.6C121 45.1 118.9 42.9 118.9 40.4V5.1C118.9 2.5 121 0.400002 123.6 0.400002H135C137.5 0.400002 139.7 2.5 139.7 5.1V14.2L132 16V8H126.5V37.3H132V28.6ZM115.2 37.4V45.1H97V0.400002H104.6V37.4H115.2ZM93.8 37.4V45.1H73V0.400002H93.8V8H80.6V18.8H91.1V26.5H80.6V37.4H93.8ZM61.6 0.400002H69.3L68 45.1H53.5L51.5 26.6L49.5 45.1H35L34 0.400002H41.6L42.2 37.4H43L47.8 0.400002H55.4L60.3 37.4H61.1L61.6 0.400002Z" fill="#81B3D3"/>
</svg>
